#!OML:ASF C:\ViconDB\ViconDB\414\Spring2016\041811\Spring2016.ASF
:FULLY-SPECIFIED
:DEGREES
259
root 10.5879 18.0326 -24.4805 -181.314 -1.74826 -175.575
lowerback 0.882763 -0.353227 3.00598
upperback 0.826098 -0.574564 2.64143
thorax 0.352112 -0.329177 1.02509
lowerneck -10.2314 -3.59465 -9.6503
upperneck 20.6492 -7.93909 14.6295
head 9.08156 -3.66304 5.71291
rclavicle -1.01007e-014 2.10712e-014
rhumerus -44.8095 -19.8544 -80.2294
rradius 33.5377
rwrist 40.1637
rhand -34.086 -14.784
rfingers 7.12502
rthumb -7.26257 -44.6393
lclavicle -1.01007e-014 2.10712e-014
lhumerus -39.5871 4.96401 86.5913
lradius 19.8642
lwrist -40.5484
lhand -24.9769 14.9124
lfingers 7.12502
lthumb 1.53386 44.8866
rfemur 175.781 62.5281 -147.721
rtibia 32.6749
rfoot -72.6464 -47.4651
rtoes -7.95139e-016
lfemur -6.38829 6.08634 -8.01681
ltibia 60.8789
lfoot 6.57902 -8.01431
ltoes 2.98972e-013
260
root 10.6037 18.0527 -24.6435 -181.285 -1.39273 -175.705
lowerback 0.983044 -0.14592 2.94685
upperback 0.913236 -0.291186 2.53257
thorax 0.385883 -0.184498 0.945011
lowerneck -10.1381 -3.66269 -9.7227
upperneck 20.2791 -8.01502 14.8881
head 8.96315 -3.68198 5.8013
rclavicle -1.80149e-015 7.15625e-015
rhumerus -44.1466 -19.4048 -80.8121
rradius 33.7515
rwrist 40.2986
rhand -34.117 -14.9597
rfingers 7.12502
rthumb -7.29247 -44.8141
lclavicle -1.80149e-015 7.15625e-015
lhumerus -39.7646 4.83111 86.5791
lradius 19.4891
lwrist -40.6757
lhand -24.6273 14.9312
lfingers 7.12502
lthumb 1.8715 44.9027
rfemur 174.966 63.357 -148.368
rtibia 32.6457
rfoot -73.8853 -46.9415
rtoes -5.24792e-014
lfemur -8.12869 6.99389 -7.91522
ltibia 62.9285
lfoot 5.29923 -6.9382
ltoes 1.36764e-013
261
root 10.6238 18.0702 -24.8104 -181.325 -1.02264 -175.741
lowerback 0.935809 0.0914397 2.84488
upperback 1.13785 0.00952081 2.54513
thorax 0.644193 -0.0335814 1.01313
lowerneck -10.2748 -3.76687 -9.65333
upperneck 20.0627 -8.05971 14.7769
head 8.91604 -3.6858 5.73738
rclavicle -1.11816e-015 -1.19271e-015
rhumerus -43.1794 -18.744 -81.4288
rradius 33.8814
rwrist 39.7047
rhand -34.4764 -15.1283
rfingers 7.12502
rthumb -7.63942 -44.9703
lclavicle -1.11816e-015 -1.19271e-015
lhumerus -39.7619 5.58436 86.2401
lradius 19.0579
lwrist -41.3589
lhand -24.1657 14.7575
lfingers 7.12502
lthumb 2.31737 44.7247
rfemur 173.895 64.1606 -149.136
rtibia 32.6442
rfoot -74.9094 -46.3313
rtoes 4.92986e-014
lfemur -9.69336 7.85044 -7.75545
ltibia 64.6574
lfoot 4.06951 -5.52363
ltoes 1.65389e-013
262
root 10.6395 18.0886 -24.9864 -181.361 -0.549519 -176.031
lowerback 0.826772 0.324795 2.47775
upperback 1.34711 0.309887 2.49684
thorax 0.918543 0.117588 1.16921
lowerneck -10.3329 -3.83155 -9.94184
upperneck 19.8193 -8.13971 15.1876
head 8.88621 -3.70516 5.9198
rclavicle -4.22417e-016 7.15625e-015
rhumerus -42.267 -18.2349 -81.7904
rradius 33.8807
rwrist 39.8624
rhand -34.3265 -14.8536
rfingers 7.12502
rthumb -7.49468 -44.7008
lclavicle -4.22417e-016 7.15625e-015
lhumerus -39.8498 5.94799 86.1038
lradius 18.8316
lwrist -41.5583
lhand -23.6793 14.3511
lfingers 7.12502
lthumb 2.78709 44.3126
rfemur 172.474 64.4422 -150.533
rtibia 32.7209
rfoot -75.5003 -45.9952
rtoes 5.56597e-014
lfemur -11.0837 8.6517 -8.00799
ltibia 65.9599
lfoot 2.68543 -3.59055
ltoes -2.54444e-013
263
root 10.6583 18.1095 -25.1431 -181.33 -0.273567 -175.918
lowerback 0.961541 0.492893 2.59668
upperback 1.3909 0.538505 2.44594
thorax 0.889161 0.23296 1.04965
lowerneck -10.2614 -3.8682 -9.95096
upperneck 19.6507 -8.22288 15.3948
head 8.83779 -3.73377 5.98185
rclavicle 6.68413e-015 1.31198e-014
rhumerus -41.5057 -17.7548 -82.3699
rradius 33.9197
rwrist 39.628
rhand -34.6377 -14.8475
rfingers 7.12502
rthumb -7.79514 -44.6838
lclavicle 6.68413e-015 1.31198e-014
lhumerus -40.1759 6.13329 85.8511
lradius 18.6845
lwrist -41.9964
lhand -23.5024 14.4186
lfingers 7.12502
lthumb 2.95794 44.3779
rfemur 171.354 64.8656 -151.218
rtibia 32.7965
rfoot -76.1071 -45.7782
rtoes 1.11319e-014
lfemur -12.7052 9.37114 -7.76829
ltibia 67.0523
lfoot 1.60052 -2.05827
ltoes 3.435e-013
264
root 10.6787 18.1231 -25.3049 -181.366 0.112027 -176.394
lowerback 1.08143 0.53313 2.02273
upperback 1.50088 0.805757 2.30718
thorax 0.924792 0.453706 1.22884
lowerneck -10.3437 -3.88007 -9.98872
upperneck 19.6109 -8.21546 15.4313
head 8.84244 -3.72203 6.00101
rclavicle 2.49723e-015 -3.1408e-014
rhumerus -40.7325 -17.4747 -82.61
rradius 34.029
rwrist 40.6032
rhand -33.9119 -14.8381
rfingers 7.12502
rthumb -7.09457 -44.6992
lclavicle 2.49723e-015 -3.1408e-014
lhumerus -40.4516 6.66158 85.45
lradius 18.5374
lwrist -42.8595
lhand -23.3143 14.0681
lfingers 7.12502
lthumb 3.13958 44.0247
rfemur 169.839 64.8258 -152.902
rtibia 32.9214
rfoot -76.1111 -45.3324
rtoes 6.75868e-014
lfemur -13.9961 10.0592 -8.31624
ltibia 67.6803
lfoot 0.396995 -0.496052
ltoes 4.0075e-013
265
root 10.6925 18.136 -25.4693 -181.378 0.502287 -176.743
lowerback 1.19809 0.756455 1.69671
upperback 1.53036 1.09534 2.13292
thorax 0.885072 0.591401 1.23015
lowerneck -10.2962 -3.91003 -9.95573
upperneck 19.5965 -8.28316 15.4756
head 8.83934 -3.75206 6.00268
rclavicle -1.73937e-015 -1.31198e-014
rhumerus -40.0581 -16.9299 -83.1465
rradius 34.1846
rwrist 40.0317
rhand -34.0153 -14.9582
rfingers 7.12502
rthumb -7.19436 -44.816
lclavicle -1.73937e-015 -1.31198e-014
lhumerus -40.8541 6.26518 85.5943
lradius 18.8571
lwrist -41.373
lhand -22.7199 14.1048
lfingers 7.12502
lthumb 3.71358 44.0522
rfemur 168.453 64.9715 -154.364
rtibia 33.0292
rfoot -76.5727 -45.1906
rtoes -7.15625e-015
lfemur -15.2672 10.5904 -8.82957
ltibia 68.0617
lfoot -0.873253 0.894468
ltoes -1.27222e-014
266
root 10.7067 18.1464 -25.6333 -181.427 0.877283 -176.772
lowerback 1.39674 0.994243 1.81308
upperback 1.5333 1.4172 2.02203
thorax 0.779521 0.7524 1.04586
lowerneck -10.2258 -3.96505 -10.024
upperneck 19.644 -8.39302 15.5524
head 8.8645 -3.80896 6.03086
rclavicle -5.60324e-015 7.95139e-015
rhumerus -39.3367 -16.5744 -83.441
rradius 33.9863
rwrist 40.264
rhand -33.7014 -14.7718
rfingers 7.12502
rthumb -6.89135 -44.6397
lclavicle -5.60324e-015 7.95139e-015
lhumerus -41.3249 6.6168 85.2072
lradius 18.828
lwrist -42.3066
lhand -22.968 14.0362
lfingers 7.12502
lthumb 3.47395 43.9876
rfemur 166.951 65.1979 -155.578
rtibia 33.1598
rfoot -77.0857 -44.9437
rtoes -5.56597e-015
lfemur -16.4701 11.0969 -8.94772
ltibia 68.1536
lfoot -1.93607 1.9472
ltoes -3.62583e-013
267
root 10.7208 18.1566 -25.7904 -181.503 1.2279 -176.927
lowerback 1.55781 1.12778 1.61058
upperback 1.63221 1.5952 1.93858
thorax 0.786672 0.839592 1.07014
lowerneck -10.3139 -3.97039 -10.0197
upperneck 19.6637 -8.38362 15.5297
head 8.88557 -3.79875 6.02279
rclavicle 1.31446e-014 2.00773e-014
rhumerus -38.3705 -15.7467 -84.055
rradius 33.8693
rwrist 39.8348
rhand -33.7547 -14.862
rfingers 7.12502
rthumb -6.94278 -44.7282
lclavicle 1.31446e-014 2.00773e-014
lhumerus -41.6666 6.57738 85.141
lradius 19.0128
lwrist -42.3563
lhand -23.159 14.2532
lfingers 7.12502
lthumb 3.28953 44.2075
rfemur 165.322 64.6261 -157.084
rtibia 33.2704
rfoot -76.5446 -44.9422
rtoes -3.4191e-014
lfemur -17.6008 11.4223 -9.28422
ltibia 67.9653
lfoot -3.39313 2.84984
ltoes 2.83069e-013
268
root 10.7301 18.1592 -25.9518 -181.562 1.56285 -176.805
lowerback 1.70202 1.28119 1.92541
upperback 1.67641 1.80608 1.79798
thorax 0.764072 0.948598 0.745443
lowerneck -10.3088 -3.93861 -9.86507
upperneck 19.7702 -8.37566 15.4486
head 8.90933 -3.79292 5.96972
rclavicle -1.73502e-014 -8.34896e-015
rhumerus -37.6401 -15.4767 -84.6011
rradius 33.882
rwrist 39.224
rhand -34.265 -14.981
rfingers 7.12502
rthumb -7.43532 -44.8303
lclavicle -1.73502e-014 -8.34896e-015
lhumerus -42.163 6.3028 85.0677
lradius 19.4061
lwrist -41.6408
lhand -22.6417 14.1369
lfingers 7.12502
lthumb 3.78911 44.0829
rfemur 163.768 64.4211 -158.239
rtibia 33.3785
rfoot -76.3977 -44.8604
rtoes -1.11319e-014
lfemur -18.6289 11.7294 -9.37402
ltibia 67.5101
lfoot -4.53222 3.31533
ltoes 8.5875e-014
269
root 10.7411 18.1638 -26.0952 -181.754 1.92994 -177.127
lowerback 2.12488 1.43382 1.5608
upperback 1.77152 2.01586 1.70191
thorax 0.615961 1.05019 0.837917
lowerneck -10.3576 -3.93651 -9.89327
upperneck 19.8294 -8.33488 15.343
head 8.92898 -3.77712 5.94333
rclavicle 9.05713e-015 2.46493e-014
rhumerus -36.8013 -15.1571 -84.8869
rradius 34.0874
rwrist 38.9816
rhand -33.7291 -14.9528
rfingers 7.12502
rthumb -6.91805 -44.8197
lclavicle 9.05713e-015 2.46493e-014
lhumerus -42.4908 6.31511 85.047
lradius 19.6941
lwrist -41.1768
lhand -22.7107 13.9256
lfingers 7.12502
lthumb 3.72251 43.8728
rfemur 162.076 63.2236 -159.954
rtibia 33.5381
rfoot -75.0689 -44.9982
rtoes -7.71285e-014
lfemur -19.5893 11.8476 -9.92446
ltibia 66.778
lfoot -5.72605 3.81684
ltoes -2.8943e-013
270
root 10.7517 18.1646 -26.2426 -181.95 2.27334 -177.457
lowerback 2.54203 1.58228 1.17358
upperback 1.825 2.21557 1.59427
thorax 0.426447 1.14622 0.928443
lowerneck -10.3687 -3.93285 -9.87284
upperneck 19.9703 -8.30516 15.1536
head 8.96483 -3.77373 5.87913
rclavicle 7.95139e-016 -5.56597e-015
rhumerus -36.0947 -14.9871 -85.0566
rradius 34.1875
rwrist 39.3722
rhand -33.7532 -14.8273
rfingers 7.12502
rthumb -6.94135 -44.6935
lclavicle 7.95139e-016 -5.56597e-015
lhumerus -42.9924 5.49484 85.6241
lradius 20.3176
lwrist -39.7166
lhand -22.8641 14.2354
lfingers 7.12502
lthumb 3.57433 44.1852
rfemur 160.45 62.2948 -161.603
rtibia 33.7143
rfoot -74.0561 -45.0742
rtoes 7.55382e-014
lfemur -20.4231 11.7941 -10.518
ltibia 65.7512
lfoot -6.73803 3.99486
ltoes 2.00375e-013
